<svg width="18" height="18" viewBox="0 0 18 18" fill="none" xmlns="http://www.w3.org/2000/svg">
<path d="M4.67254 16.0245L4.39991 16.4437L4.39991 16.4437L4.67254 16.0245ZM4.875 16.1447L4.62499 16.5777L4.62693 16.5788L4.875 16.1447ZM3.87424 13.6906L3.40203 13.5262L3.40203 13.5262L3.87424 13.6906ZM3.96071 13.4716L3.49789 13.2824H3.49789L3.96071 13.4716ZM3.80868 12.0103L3.37585 12.2607L3.37637 12.2616L3.80868 12.0103ZM3.79612 11.9886L3.36277 12.238L3.36329 12.2389L3.79612 11.9886ZM2.60781 11.1284L2.54025 11.6238H2.54025L2.60781 11.1284ZM2.37494 11.0938L2.28118 11.5849H2.28118L2.37494 11.0938ZM0.752821 9.23543L1.25212 9.20888L1.25212 9.20888L0.752821 9.23543ZM0.752821 8.76462L1.25212 8.79117L1.25212 8.79117L0.752821 8.76462ZM2.37494 6.90629L2.46871 7.39742H2.46871L2.37494 6.90629ZM2.60781 6.87169L2.54025 6.37627H2.54025L2.60781 6.87169ZM3.79611 6.01142L3.36328 5.7611L3.36276 5.76201L3.79611 6.01142ZM3.80868 5.9897L3.37637 5.73848L3.37585 5.73938L3.80868 5.9897ZM3.9607 4.52844L3.49254 4.704C3.49425 4.70858 3.49604 4.71312 3.49788 4.71764L3.9607 4.52844ZM3.9607 4.52844L4.42887 4.35287C4.42715 4.3483 4.42537 4.34375 4.42352 4.33923L3.9607 4.52844ZM3.87424 4.30948L3.40203 4.47384V4.47384L3.87424 4.30948ZM4.67254 1.97551L4.94518 2.39464L4.94518 2.39464L4.67254 1.97551ZM4.87498 1.85537L5.12501 2.28843L5.13135 2.28465L4.87498 1.85537ZM4.875 1.85537L5.13137 2.28464L5.13274 2.28382L4.875 1.85537ZM4.87501 1.85536L4.62497 1.42228L4.61727 1.42691L4.87501 1.85536ZM5.08027 1.74011L5.30693 2.18578L5.30693 2.18578L5.08027 1.74011ZM7.5007 2.21574L7.87915 1.88898L7.87915 1.88897L7.5007 2.21574ZM7.64709 2.40011L7.25183 2.70632L7.25183 2.70632L7.64709 2.40011ZM8.98775 3.00003L8.98725 2.50003L8.98675 2.50003L8.98775 3.00003ZM9 3.00002L9.00049 2.50002L8.9995 2.50002L9 3.00002ZM9.01204 3.00003L9.01302 2.50003L9.01253 2.50003L9.01204 3.00003ZM10.3529 2.39999L9.95764 2.09378V2.09378L10.3529 2.39999ZM10.4993 2.21563L10.1208 1.88886L10.1208 1.88887L10.4993 2.21563ZM12.9197 1.74L12.6931 2.18567L12.6931 2.18567L12.9197 1.74ZM13.125 1.85524L12.875 2.28827L12.8787 2.29038L13.125 1.85524ZM13.125 1.85526L13.375 1.42223L13.3713 1.42011L13.125 1.85526ZM13.3275 1.9754L13.6001 1.55627L13.6001 1.55627L13.3275 1.9754ZM14.1258 4.30937L14.598 4.47373L14.598 4.47373L14.1258 4.30937ZM14.0393 4.52833L13.5765 4.33913L13.5765 4.33913L14.0393 4.52833ZM14.1913 5.98972L14.6242 5.7394L14.6236 5.7385L14.1913 5.98972ZM14.2039 6.01142L14.6372 5.76201L14.6367 5.76109L14.2039 6.01142ZM15.3922 6.87169L15.461 6.37644L15.4598 6.37627L15.3922 6.87169ZM15.3922 6.8717L15.3235 7.36694L15.3247 7.36711L15.3922 6.8717ZM15.6251 6.90629L15.5313 7.39742L15.6251 6.90629ZM17.2472 8.76462L16.7479 8.79117L16.7479 8.79117L17.2472 8.76462ZM17.2472 9.23543L16.7479 9.20888L16.7479 9.20888L17.2472 9.23543ZM15.6251 11.0938L15.7188 11.5849L15.7188 11.5849L15.6251 11.0938ZM15.3925 11.1283L15.4545 11.6245L15.46 11.6237L15.3925 11.1283ZM15.3924 11.1283L15.3304 10.6322L15.3274 10.6326L15.3924 11.1283ZM15.3923 11.1284L15.4543 11.6245L15.4573 11.6241L15.3923 11.1284ZM15.3922 11.1284L15.3302 10.6322L15.3246 10.6329L15.3922 11.1284ZM14.2039 11.9886L14.6367 12.2389L14.6372 12.238L14.2039 11.9886ZM14.1913 12.0103L14.6236 12.2615L14.6242 12.2606L14.1913 12.0103ZM14.0393 13.4717L13.5765 13.6609V13.6609L14.0393 13.4717ZM14.1258 13.6907L14.598 13.5263L14.598 13.5263L14.1258 13.6907ZM13.3275 16.0246L13.6001 16.4438L13.6001 16.4438L13.3275 16.0246ZM13.1251 16.1447L13.3742 16.5783L13.3751 16.5777L13.1251 16.1447ZM13.125 16.1448L13.322 16.6044C13.3398 16.5967 13.3572 16.588 13.3741 16.5783L13.125 16.1448ZM13.125 16.1448L12.928 15.6852C12.9073 15.6941 12.8871 15.7044 12.8677 15.716L13.125 16.1448ZM13.1249 16.1448L13.3744 16.5782L13.3822 16.5736L13.1249 16.1448ZM13.1247 16.145L12.8752 15.7116L12.8747 15.712L13.1247 16.145ZM12.9197 16.26L12.6931 15.8144L12.6931 15.8144L12.9197 16.26ZM10.4993 15.7844L10.8777 15.4576L10.8777 15.4576L10.4993 15.7844ZM10.3529 15.6L10.7482 15.2938L10.7482 15.2938L10.3529 15.6ZM9.01205 15L9.01253 15.5L9.01303 15.5L9.01205 15ZM9 15L8.99949 15.5L9.00047 15.5L9 15ZM8.98774 15L8.98674 15.5L8.98723 15.5L8.98774 15ZM7.64709 15.5999L7.25183 15.2937L7.25183 15.2937L7.64709 15.5999ZM7.5007 15.7843L7.12225 15.4575L7.12225 15.4575L7.5007 15.7843ZM5.08027 16.2599L5.30693 15.8143L5.30692 15.8143L5.08027 16.2599ZM4.87529 16.1448L4.62477 16.5776L4.6253 16.5779L4.87529 16.1448ZM4.87518 16.1448L4.62359 16.5769L4.62467 16.5775L4.87518 16.1448ZM4.87507 16.1447L4.6178 16.5735L4.62348 16.5768L4.87507 16.1447ZM4.87506 16.1447L5.13236 15.7159L5.12313 15.7106L4.87506 16.1447ZM4.39991 16.4437C4.45833 16.4817 4.52504 16.52 4.625 16.5777L5.125 15.7117C5.0144 15.6478 4.97582 15.6253 4.94518 15.6054L4.39991 16.4437ZM3.40203 13.5262C3.02394 14.6124 3.43577 15.8165 4.39991 16.4437L4.94518 15.6054C4.3667 15.2291 4.1196 14.5067 4.34645 13.8549L3.40203 13.5262ZM3.49789 13.2824C3.45421 13.3892 3.42494 13.4604 3.40203 13.5262L4.34645 13.8549C4.35847 13.8204 4.3752 13.779 4.42353 13.6608L3.49789 13.2824ZM3.37637 12.2616C3.57715 12.6071 3.62081 12.9817 3.49789 13.2824L4.42353 13.6608C4.69069 13.0073 4.55817 12.3049 4.24098 11.7591L3.37637 12.2616ZM3.36329 12.2389L3.37585 12.2607L4.24151 11.76L4.22895 11.7383L3.36329 12.2389ZM2.54025 11.6238C2.86146 11.6676 3.16369 11.8921 3.36277 12.238L4.22947 11.7392C3.91517 11.1931 3.37388 10.7282 2.67536 10.6329L2.54025 11.6238ZM2.28118 11.5849C2.34964 11.598 2.42589 11.6082 2.54025 11.6238L2.67536 10.6329C2.54882 10.6157 2.50462 10.6095 2.46871 10.6026L2.28118 11.5849ZM0.253526 9.26197C0.314591 10.4105 1.15142 11.3692 2.28118 11.5849L2.46871 10.6026C1.79085 10.4732 1.28875 9.89801 1.25212 9.20888L0.253526 9.26197ZM0.25 9.00002C0.25 9.11544 0.249825 9.19237 0.253526 9.26198L1.25212 9.20888C1.25017 9.17237 1.25 9.12774 1.25 9.00002H0.25ZM0.253526 8.73807C0.249825 8.80768 0.25 8.88461 0.25 9.00002H1.25C1.25 8.87231 1.25017 8.82768 1.25212 8.79117L0.253526 8.73807ZM2.28118 6.41516C1.15142 6.63085 0.314591 7.58953 0.253526 8.73808L1.25212 8.79117C1.28875 8.10204 1.79085 7.52683 2.46871 7.39742L2.28118 6.41516ZM2.54025 6.37627C2.42589 6.39187 2.34964 6.40209 2.28118 6.41516L2.46871 7.39742C2.50462 7.39056 2.54882 7.38436 2.67536 7.3671L2.54025 6.37627ZM3.36276 5.76201C3.16369 6.1079 2.86146 6.33247 2.54025 6.37627L2.67536 7.3671C3.37388 7.27185 3.91517 6.80692 4.22947 6.26083L3.36276 5.76201ZM3.37585 5.73938L3.36329 5.7611L4.22894 6.26174L4.2415 6.24002L3.37585 5.73938ZM3.49788 4.71764C3.62081 5.01834 3.57715 5.39298 3.37637 5.73848L4.24098 6.24093C4.55817 5.69511 4.69069 4.99277 4.42353 4.33924L3.49788 4.71764ZM3.49254 4.704L3.49254 4.704L4.42887 4.35288L4.42887 4.35287L3.49254 4.704ZM3.40203 4.47384C3.42494 4.53967 3.45421 4.61081 3.49788 4.71764L4.42352 4.33923C4.3752 4.22102 4.35847 4.17964 4.34645 4.14511L3.40203 4.47384ZM4.3999 1.55638C3.43577 2.18354 3.02394 3.38759 3.40203 4.47384L4.34645 4.14511C4.1196 3.49337 4.3667 2.77093 4.94518 2.39464L4.3999 1.55638ZM4.62498 1.42236C4.52504 1.48006 4.45833 1.51838 4.3999 1.55638L4.94518 2.39464C4.97582 2.37471 5.01439 2.35224 5.12498 2.28839L4.62498 1.42236ZM4.61863 1.42609L4.61861 1.4261L5.13135 2.28465L5.13137 2.28464L4.61863 1.42609ZM4.61727 1.42691L4.61726 1.42692L5.13274 2.28382L5.13275 2.28381L4.61727 1.42691ZM4.85361 1.29443C4.79149 1.32603 4.72495 1.36464 4.62501 1.42235L5.12501 2.28837C5.2356 2.22452 5.27434 2.20236 5.30693 2.18578L4.85361 1.29443ZM7.87915 1.88897C7.12747 1.01842 5.87882 0.773044 4.85361 1.29443L5.30693 2.18578C5.92205 1.87295 6.67124 2.02017 7.12225 2.54251L7.87915 1.88897ZM8.04236 2.09389C7.97167 2.00265 7.9247 1.94173 7.87915 1.88898L7.12225 2.54251C7.14614 2.57018 7.17362 2.60536 7.25183 2.70632L8.04236 2.09389ZM8.98675 2.50003C8.58772 2.50083 8.24151 2.35097 8.04236 2.09389L7.25183 2.70632C7.68375 3.26384 8.35733 3.50129 8.98875 3.50003L8.98675 2.50003ZM8.9995 2.50002L8.98725 2.50003L8.98825 3.50003L9.0005 3.50002L8.9995 2.50002ZM9.01253 2.50003L9.00049 2.50002L8.9995 3.50002L9.01154 3.50003L9.01253 2.50003ZM9.95764 2.09378C9.75843 2.35092 9.41214 2.50082 9.01302 2.50003L9.01106 3.50003C9.64255 3.50127 10.3162 3.26379 10.7482 2.70621L9.95764 2.09378ZM10.1208 1.88887C10.0753 1.94162 10.0283 2.00254 9.95764 2.09378L10.7482 2.70621C10.8264 2.60525 10.8539 2.57007 10.8777 2.54239L10.1208 1.88887ZM13.1464 1.29432C12.1212 0.772933 10.8725 1.0183 10.1208 1.88886L10.8777 2.5424C11.3287 2.02006 12.0779 1.87284 12.6931 2.18567L13.1464 1.29432ZM13.375 1.42223C13.275 1.36453 13.2085 1.32592 13.1464 1.29432L12.6931 2.18567C12.7256 2.20224 12.7644 2.22441 12.875 2.28825L13.375 1.42223ZM13.3713 1.42011L13.3712 1.4201L12.8787 2.29038L12.8787 2.2904L13.3713 1.42011ZM13.6001 1.55627C13.5417 1.51826 13.475 1.47995 13.375 1.42224L12.875 2.28827C12.9856 2.35212 13.0242 2.37459 13.0548 2.39453L13.6001 1.55627ZM14.598 4.47373C14.9761 3.38748 14.5642 2.18343 13.6001 1.55627L13.0548 2.39453C13.6333 2.77082 13.8804 3.49325 13.6535 4.145L14.598 4.47373ZM14.5021 4.71754C14.5458 4.6107 14.5751 4.53956 14.598 4.47373L13.6535 4.145C13.6415 4.17953 13.6248 4.22092 13.5765 4.33913L14.5021 4.71754ZM14.6236 5.7385C14.4228 5.39296 14.3792 5.01827 14.5021 4.71753L13.5765 4.33913C13.3093 4.99271 13.4418 5.6951 13.759 6.24094L14.6236 5.7385ZM14.6367 5.76109L14.6242 5.7394L13.7585 6.24005L13.7711 6.26174L14.6367 5.76109ZM15.4598 6.37627C15.1385 6.33247 14.8363 6.1079 14.6372 5.76201L13.7705 6.26083C14.0848 6.80692 14.6261 7.27185 15.3246 7.3671L15.4598 6.37627ZM15.461 6.37645L15.461 6.37644L15.3234 7.36693L15.3235 7.36694L15.461 6.37645ZM15.7188 6.41516C15.6504 6.40209 15.5741 6.39187 15.4598 6.37628L15.3247 7.36711C15.4512 7.38436 15.4954 7.39056 15.5313 7.39742L15.7188 6.41516ZM17.7465 8.73808C17.6854 7.58953 16.8486 6.63085 15.7188 6.41516L15.5313 7.39742C16.2092 7.52683 16.7112 8.10204 16.7479 8.79117L17.7465 8.73808ZM17.75 9.00003C17.75 8.88461 17.7502 8.80768 17.7465 8.73808L16.7479 8.79117C16.7498 8.82768 16.75 8.87231 16.75 9.00003H17.75ZM17.7465 9.26198C17.7502 9.19237 17.75 9.11544 17.75 9.00003H16.75C16.75 9.12774 16.7498 9.17237 16.7479 9.20888L17.7465 9.26198ZM15.7188 11.5849C16.8486 11.3692 17.6854 10.4105 17.7465 9.26197L16.7479 9.20888C16.7112 9.89801 16.2092 10.4732 15.5313 10.6026L15.7188 11.5849ZM15.46 11.6237C15.5742 11.6082 15.6504 11.598 15.7188 11.5849L15.5313 10.6026C15.4954 10.6095 15.4513 10.6157 15.3249 10.6329L15.46 11.6237ZM15.4545 11.6245L15.4545 11.6245L15.3304 10.6322L15.3304 10.6322L15.4545 11.6245ZM15.4573 11.6241L15.4575 11.6241L15.3274 10.6326L15.3272 10.6326L15.4573 11.6241ZM15.4542 11.6245L15.4543 11.6245L15.3302 10.6322L15.3302 10.6322L15.4542 11.6245ZM14.6372 12.238C14.8363 11.8921 15.1385 11.6676 15.4598 11.6238L15.3246 10.6329C14.6261 10.7282 14.0848 11.1931 13.7705 11.7392L14.6372 12.238ZM14.6242 12.2606L14.6367 12.2389L13.771 11.7383L13.7585 11.76L14.6242 12.2606ZM14.5021 13.2825C14.3792 12.9818 14.4228 12.6071 14.6236 12.2615L13.759 11.7591C13.4418 12.3049 13.3093 13.0073 13.5765 13.6609L14.5021 13.2825ZM14.598 13.5263C14.5751 13.4605 14.5458 13.3893 14.5021 13.2825L13.5765 13.6609C13.6248 13.7791 13.6415 13.8205 13.6535 13.855L14.598 13.5263ZM13.6001 16.4438C14.5642 15.8166 14.9761 14.6126 14.598 13.5263L13.6535 13.855C13.8804 14.5068 13.6333 15.2292 13.0548 15.6055L13.6001 16.4438ZM13.3751 16.5777C13.475 16.5201 13.5417 16.4818 13.6001 16.4438L13.0548 15.6055C13.0242 15.6254 12.9856 15.6479 12.8751 15.7117L13.3751 16.5777ZM13.3741 16.5783L13.3742 16.5783L12.8761 15.7112L12.8759 15.7112L13.3741 16.5783ZM13.322 16.6044L13.322 16.6044L12.928 15.6852L12.928 15.6852L13.322 16.6044ZM13.3822 16.5736L13.3822 16.5735L12.8677 15.716L12.8677 15.7161L13.3822 16.5736ZM13.3741 16.5783L13.3744 16.5782L12.8755 15.7115L12.8752 15.7116L13.3741 16.5783ZM13.1464 16.7057C13.2084 16.6742 13.2749 16.6356 13.3747 16.578L12.8747 15.712C12.7643 15.7757 12.7256 15.7978 12.6931 15.8144L13.1464 16.7057ZM10.1208 16.1112C10.8725 16.9817 12.1212 17.2271 13.1464 16.7057L12.6931 15.8144C12.0779 16.1272 11.3287 15.98 10.8777 15.4576L10.1208 16.1112ZM9.95763 15.9063C10.0283 15.9975 10.0753 16.0584 10.1208 16.1112L10.8777 15.4576C10.8539 15.43 10.8264 15.3948 10.7482 15.2938L9.95763 15.9063ZM9.01303 15.5C9.41215 15.4992 9.75843 15.6491 9.95764 15.9063L10.7482 15.2938C10.3162 14.7362 9.64255 14.4988 9.01107 14.5L9.01303 15.5ZM9.00047 15.5L9.01253 15.5L9.01158 14.5L8.99952 14.5L9.00047 15.5ZM8.98723 15.5L8.99949 15.5L9.0005 14.5L8.98824 14.5L8.98723 15.5ZM8.04236 15.9061C8.24151 15.6491 8.58772 15.4992 8.98674 15.5L8.98874 14.5C8.35732 14.4987 7.68375 14.7362 7.25183 15.2937L8.04236 15.9061ZM7.87914 16.1111C7.9247 16.0583 7.97167 15.9974 8.04236 15.9061L7.25183 15.2937C7.17361 15.3947 7.14614 15.4299 7.12225 15.4575L7.87914 16.1111ZM4.85361 16.7056C5.87882 17.227 7.12747 16.9816 7.87915 16.1111L7.12225 15.4575C6.67125 15.9799 5.92205 16.1271 5.30693 15.8143L4.85361 16.7056ZM4.6253 16.5779C4.72506 16.6355 4.79154 16.674 4.85362 16.7056L5.30692 15.8143C5.27438 15.7977 5.23569 15.7756 5.12529 15.7118L4.6253 16.5779ZM4.62467 16.5775L4.62478 16.5776L5.12581 15.7121L5.1257 15.7121L4.62467 16.5775ZM4.62348 16.5768L4.62359 16.5769L5.12678 15.7127L5.12667 15.7126L4.62348 16.5768ZM4.61781 16.5735L4.61782 16.5735L5.13232 15.716L5.13231 15.716L4.61781 16.5735ZM4.62693 16.5788L4.62699 16.5788L5.12313 15.7106L5.12307 15.7106L4.62693 16.5788ZM10.75 9C10.75 9.96649 9.9665 10.75 9 10.75V11.75C10.5188 11.75 11.75 10.5188 11.75 9H10.75ZM9 7.25C9.9665 7.25 10.75 8.0335 10.75 9H11.75C11.75 7.48121 10.5188 6.25 9 6.25V7.25ZM7.25 9C7.25 8.0335 8.0335 7.25 9 7.25V6.25C7.48122 6.25 6.25 7.48121 6.25 9H7.25ZM9 10.75C8.0335 10.75 7.25 9.96649 7.25 9H6.25C6.25 10.5188 7.48122 11.75 9 11.75V10.75Z" fill="white"/>
</svg>
