<svg width="18" height="18" viewBox="0 0 18 18" fill="none" xmlns="http://www.w3.org/2000/svg">
<path fill-rule="evenodd" clip-rule="evenodd" d="M9 1C6.60943 1 4.63381 1.99533 3.27188 2.96813C2.76356 3.33122 2.33642 3.69417 2 4.00724V2.25C2 1.97386 1.77614 1.75 1.5 1.75C1.22386 1.75 1 1.97386 1 2.25V5.25C1 5.52614 1.22386 5.75 1.5 5.75H4.125C4.40114 5.75 4.625 5.52614 4.625 5.25C4.625 4.97386 4.40114 4.75 4.125 4.75H2.66976C2.98098 4.45958 3.37882 4.12065 3.85312 3.78187C5.11619 2.87967 6.89057 2 9 2C11.1364 2 12.8778 2.70994 14.0839 3.91605C15.2901 5.12216 16 6.86362 16 9C16 11.1364 15.2901 12.8778 14.0839 14.0839C12.8778 15.2901 11.1364 16 9 16C4.80896 16 2 12.4858 2 9C2 8.72386 1.77614 8.5 1.5 8.5C1.22386 8.5 1 8.72386 1 9C1 12.9701 4.19104 17 9 17C11.3636 17 13.3722 16.2099 14.7911 14.7911C16.2099 13.3722 17 11.3636 17 9C17 6.63638 16.2099 4.62784 14.7911 3.20895C13.3722 1.79006 11.3636 1 9 1ZM9.5 6C9.5 5.72386 9.27614 5.5 9 5.5C8.72386 5.5 8.5 5.72386 8.5 6V9C8.5 9.16718 8.58355 9.32329 8.72265 9.41603L10.9726 10.916C11.2024 11.0692 11.5128 11.0071 11.666 10.7773C11.8192 10.5476 11.7571 10.2372 11.5274 10.084L9.5 8.73241V6Z" fill="white"/>
</svg>
