<svg width="20" height="20" viewBox="0 0 20 20" fill="none" xmlns="http://www.w3.org/2000/svg">
<path fill-rule="evenodd" clip-rule="evenodd" d="M1.75 5C1.75 4.58579 2.08579 4.25 2.5 4.25H17.5C17.9142 4.25 18.25 4.58579 18.25 5C18.25 5.41421 17.9142 5.75 17.5 5.75H2.5C2.08579 5.75 1.75 5.41421 1.75 5ZM1.75 10C1.75 9.58579 2.08579 9.25 2.5 9.25H17.5C17.9142 9.25 18.25 9.58579 18.25 10C18.25 10.4142 17.9142 10.75 17.5 10.75H2.5C2.08579 10.75 1.75 10.4142 1.75 10ZM2.5 14.25C2.08579 14.25 1.75 14.5858 1.75 15C1.75 15.4142 2.08579 15.75 2.5 15.75H17.5C17.9142 15.75 18.25 15.4142 18.25 15C18.25 14.5858 17.9142 14.25 17.5 14.25H2.5Z" fill="white"/>
</svg>
