<svg width="16" height="16" viewBox="0 0 16 16" fill="none" xmlns="http://www.w3.org/2000/svg">
<path fill-rule="evenodd" clip-rule="evenodd" d="M8.00007 1.93333C4.64954 1.93333 1.9334 4.64947 1.9334 8C1.9334 11.3505 4.64954 14.0667 8.00007 14.0667C11.3506 14.0667 14.0667 11.3505 14.0667 8C14.0667 4.64947 11.3506 1.93333 8.00007 1.93333ZM0.733398 8C0.733398 3.98673 3.9868 0.733333 8.00007 0.733333C12.0133 0.733333 15.2667 3.98673 15.2667 8C15.2667 12.0133 12.0133 15.2667 8.00007 15.2667C3.9868 15.2667 0.733398 12.0133 0.733398 8ZM8.66673 10.6667C8.66673 11.0349 8.36826 11.3333 8.00007 11.3333C7.63188 11.3333 7.3334 11.0349 7.3334 10.6667C7.3334 10.2985 7.63188 10 8.00007 10C8.36826 10 8.66673 10.2985 8.66673 10.6667ZM7.26673 6.66667C7.26673 6.26166 7.59506 5.93333 8.00006 5.93333C8.40507 5.93333 8.7334 6.26166 8.7334 6.66667V6.74755C8.7334 6.96349 8.64761 7.17059 8.49492 7.32328L7.5758 8.2424C7.34149 8.47672 7.34149 8.85662 7.5758 9.09093C7.81012 9.32525 8.19001 9.32525 8.42433 9.09093L9.34345 8.17181C9.72119 7.79407 9.9334 7.28175 9.9334 6.74755V6.66667C9.9334 5.59892 9.06782 4.73333 8.00006 4.73333C6.93231 4.73333 6.06673 5.59892 6.06673 6.66667V7C6.06673 7.33137 6.33536 7.6 6.66673 7.6C6.9981 7.6 7.26673 7.33137 7.26673 7V6.66667Z" fill="white"/>
</svg>
