<svg width="14" height="14" viewBox="0 0 14 14" fill="none" xmlns="http://www.w3.org/2000/svg">
<path d="M9.02057 4.97943C9.55646 5.51532 9.85752 6.24214 9.85752 7C9.85752 7.75786 9.55646 8.48469 9.02057 9.02057C8.48468 9.55646 7.75786 9.85752 7 9.85752C6.24214 9.85752 5.51532 9.55646 4.97943 9.02057C4.44354 8.48476 4.14245 7.75801 4.1424 7.0002C4.14237 6.62498 4.21625 6.25342 4.35982 5.90674C4.50339 5.56007 4.71383 5.24506 4.97914 4.97972C5.24445 4.71437 5.55942 4.50388 5.90608 4.36026C6.25273 4.21664 6.62428 4.14271 6.99951 4.14268C7.75732 4.14263 8.48411 4.44362 9.02 4.97943" stroke="white" stroke-width="0.857143" stroke-linecap="round" stroke-linejoin="round"/>
<path d="M7 2.42858V1.28572" stroke="white" stroke-width="0.857143" stroke-linecap="round" stroke-linejoin="round"/>
<path d="M7 12.7143V11.5714" stroke="white" stroke-width="0.857143" stroke-linecap="round" stroke-linejoin="round"/>
<path d="M10.6343 3.36571L11.04 2.95999" stroke="white" stroke-width="0.857143" stroke-linecap="round" stroke-linejoin="round"/>
<path d="M2.96002 11.04L3.36574 10.6343" stroke="white" stroke-width="0.857143" stroke-linecap="round" stroke-linejoin="round"/>
<path d="M11.5714 7H12.7143" stroke="white" stroke-width="0.857143" stroke-linecap="round" stroke-linejoin="round"/>
<path d="M1.28571 7H2.42856" stroke="white" stroke-width="0.857143" stroke-linecap="round" stroke-linejoin="round"/>
<path d="M10.6343 10.6343L11.04 11.04" stroke="white" stroke-width="0.857143" stroke-linecap="round" stroke-linejoin="round"/>
<path d="M2.96002 2.95999L3.36574 3.36571" stroke="white" stroke-width="0.857143" stroke-linecap="round" stroke-linejoin="round"/>
</svg>
